<?xml version="1.0" encoding="utf-8"?>
<!-- Generator: Adobe Illustrator 28.2.0, SVG Export Plug-In . SVG Version: 6.00 Build 0)  -->
<svg version="1.1" id="Layer_1" xmlns="http://www.w3.org/2000/svg" xmlns:xlink="http://www.w3.org/1999/xlink" x="0px" y="0px"
	width="178" height="161" viewBox="0 0 214 169" enable-background="new 0 0 214 169" xml:space="preserve">
<g>
	<path fill="#FFFFFF" d="M0,0.49c15.45,0,30.91,0,47.05,0c0,40.25,0,80.38,0,120.84c14.27,0,27.87,0,41.51,0
		c9.24,15.88,18.35,31.52,27.45,47.17c-38.5,0-77,0-116,0C0,112.5,0,56.49,0,0.49z"/>
	<path fill="#FFFFFF" d="M159.01,168.5c-23.47-40.18-46.95-80.36-70.49-120.66c8.91-15.83,17.69-31.45,27.09-48.16
		c32.77,56.79,65.09,112.81,97.41,168.82C195.01,168.5,177.01,168.5,159.01,168.5z"/>
</g>
</svg>
